<?xml version="1.0" standalone="no"?>
<!DOCTYPE svg PUBLIC "-//W3C//DTD SVG 20010904//EN"
 "http://www.w3.org/TR/2001/REC-SVG-20010904/DTD/svg10.dtd">
<svg version="1.0" xmlns="http://www.w3.org/2000/svg"
 width="512.000000pt" height="512.000000pt" viewBox="0 0 512.000000 512.000000"
 preserveAspectRatio="xMidYMid meet">
<metadata>
Created by potrace 1.14, written by Peter Selinger 2001-2017
</metadata>
<g transform="translate(0.000000,512.000000) scale(0.100000,-0.100000)"
fill="#000000" stroke="none">
<path d="M2830 4598 c-375 -51 -702 -226 -937 -500 -73 -86 -137 -177 -178
-256 l-27 -52 -338 0 c-185 0 -361 -5 -390 -10 -116 -22 -221 -104 -276 -215
l-29 -60 -3 -1090 c-2 -822 0 -1101 9 -1135 34 -128 127 -226 255 -270 52 -18
91 -19 596 -20 298 0 543 -1 544 -3 2 -1 -19 -77 -45 -167 l-47 -165 -361 -3
-360 -2 -26 -24 c-31 -29 -28 -71 6 -98 21 -16 111 -17 1340 -17 l1318 -1 24
26 c13 14 22 30 21 37 -7 37 -20 59 -43 68 -13 5 -180 9 -376 9 l-352 0 -17
63 c-26 101 -66 241 -73 259 -6 16 31 17 557 20 l563 3 68 34 c83 42 157 120
190 201 l22 55 5 920 c5 960 1 1265 -19 1327 -6 20 -26 58 -44 85 -18 26 -46
79 -61 116 -16 38 -55 112 -86 164 l-57 95 22 24 c43 47 58 92 52 161 -4 52
-11 72 -34 101 -82 102 -192 118 -299 46 -23 -16 -42 -23 -49 -18 -96 76 -273
172 -390 213 -81 29 -236 67 -310 77 -81 10 -297 12 -365 2z m1291 -386 c25
-21 30 -71 9 -97 -12 -14 -19 -10 -62 35 -26 27 -48 54 -48 59 0 25 71 27 101
3z"/>
<path d="M1155 4200 c-76 -29 -56 -140 25 -140 33 0 70 40 70 74 -1 44 -55 81
-95 66z"/>
</g>
</svg>
